<svg xmlns="http://www.w3.org/2000/svg" width="768" height="768" viewBox="0 0 768 768" version="1.1">
	<path fill-opacity="0.357" d="M -0 384.001 L -0 768.003 384.250 767.751 L 768.500 767.500 768.751 383.750 L 769.003 0 384.501 0 L 0 0 -0 384.001 M 0.495 384.500 C 0.495 595.700, 0.610 681.951, 0.750 576.169 C 0.890 470.386, 0.890 297.586, 0.750 192.169 C 0.610 86.751, 0.495 173.300, 0.495 384.500 M 380.500 184.037 C 378.850 184.495, 371.030 185.831, 363.122 187.006 C 355.215 188.181, 340.111 191.300, 329.558 193.935 C 310.570 198.678, 310.109 198.859, 284.911 211.364 C 270.908 218.314, 258.429 224, 257.180 224 C 250.370 224, 245.657 237.403, 243.465 263 C 243.112 267.125, 242.190 274.550, 241.416 279.500 C 239.619 290.989, 239.649 300.565, 241.546 320.500 C 242.534 330.878, 242.858 340.892, 242.468 349 C 242.137 355.875, 242.308 371.862, 242.848 384.527 C 243.669 403.799, 244.184 408.611, 246.009 414.027 C 247.208 417.587, 248.523 420.724, 248.930 420.999 C 249.338 421.275, 250.136 422.351, 250.704 423.390 C 251.449 424.755, 251.860 419.012, 252.180 402.751 C 252.663 378.238, 252.966 376.889, 258.804 373.202 C 261.118 371.741, 261.458 370.925, 261.202 367.442 C 260.916 363.544, 261.635 360.998, 264.339 356.343 C 265.311 354.669, 265.358 351.875, 264.546 343.843 C 263.567 334.161, 263.353 333.479, 261.191 333.173 C 259.921 332.993, 257.569 333.303, 255.963 333.863 C 252.091 335.213, 251.739 334.477, 251.282 324.069 C 251.075 319.356, 250.563 307.625, 250.144 298 C 249.115 274.363, 250.851 263.636, 257.134 254.812 C 259.781 251.094, 272.186 245.160, 278.889 244.403 C 281.425 244.117, 285.300 243.452, 287.500 242.925 C 294.277 241.303, 303 241.164, 303 242.679 C 303 243.406, 303.477 244, 304.059 244 C 304.641 244, 304.804 243.492, 304.420 242.870 C 303.996 242.185, 304.268 241.922, 305.111 242.201 C 306.042 242.509, 306.723 245.109, 307.177 250.080 C 307.550 254.161, 308.349 262.900, 308.954 269.500 C 309.558 276.100, 310.958 285.775, 312.064 291 C 313.169 296.225, 315.398 308.275, 317.017 317.779 C 322.191 348.154, 323.592 351.592, 336.718 366.105 C 340.998 370.837, 345.320 375.718, 346.322 376.950 L 348.143 379.190 344.822 378.506 C 340.925 377.703, 334.242 373.088, 323.577 363.835 C 316.294 357.517, 310.219 353.846, 304.791 352.484 C 302.698 351.958, 302.116 352.417, 300.594 355.791 C 299.623 357.945, 298.666 361.457, 298.467 363.595 C 298.001 368.605, 299.505 370.229, 313 379.283 C 318.775 383.158, 328 389.537, 333.500 393.458 C 348.243 403.970, 357.002 409, 360.563 409 C 364.107 409, 369.239 406.670, 372.187 403.722 C 375.248 400.661, 380.207 398, 382.851 398 C 384.261 398, 385.077 399.039, 385.797 401.750 C 386.679 405.071, 386.805 405.186, 386.897 402.750 C 387.031 399.175, 388.913 399.245, 392.811 402.969 C 396.348 406.350, 402.047 409, 405.781 409 C 410.221 409, 429.685 397.881, 457.131 379.666 C 471.777 369.946, 484.246 361.408, 484.839 360.694 C 486.029 359.261, 485.295 355, 483.859 355 C 483.359 355, 482.532 353.899, 482.020 352.554 C 481.382 350.875, 479.774 349.713, 476.895 348.851 C 473.281 347.768, 471.342 347.877, 462.890 349.636 C 456.447 350.978, 452.741 351.341, 452.094 350.694 C 451.043 349.643, 451.328 347.066, 453.551 337.500 C 454.318 334.200, 455.631 326.775, 456.469 321 C 457.308 315.225, 458.631 307.575, 459.410 304 C 460.189 300.425, 461.337 294.800, 461.961 291.500 C 462.585 288.200, 463.494 283.475, 463.981 281 C 464.467 278.525, 465.393 273.350, 466.038 269.500 C 467.432 261.187, 468.945 256.283, 471.022 253.353 C 472.355 251.473, 473.784 251.141, 482.522 250.688 C 492.154 250.188, 492.846 250.297, 502.469 253.848 C 514.667 258.348, 516.221 260.164, 519.716 274 C 520.182 275.846, 521.903 335.379, 521.502 335.809 C 521.344 335.979, 518.741 335.472, 515.717 334.683 C 512.693 333.893, 509.656 333.594, 508.969 334.019 C 508.282 334.444, 506.211 339.225, 504.367 344.645 C 501.268 353.749, 501.141 354.595, 502.698 355.750 C 503.624 356.438, 504.939 357, 505.619 357 C 508.374 357, 511 362.156, 511 367.567 C 511 372.010, 511.327 372.969, 513.027 373.508 C 514.141 373.862, 515.827 375.333, 516.774 376.777 C 518.281 379.077, 518.494 382.403, 518.497 403.618 C 518.499 416.936, 518.808 428.141, 519.184 428.517 C 520.654 429.988, 523.837 425.227, 524.878 420 C 526.034 414.195, 527.698 385.192, 528.980 348.500 C 529.622 330.101, 532.063 298.023, 533.393 290.500 C 533.725 288.620, 533.791 288.635, 534.490 290.750 C 534.899 291.988, 535.568 293, 535.978 293 C 536.387 293, 537.749 296.605, 539.003 301.011 C 541.201 308.729, 543.608 313, 545.759 313 C 546.691 313, 547.967 316.237, 547.875 318.372 C 547.828 319.484, 556.143 325.029, 557.033 324.480 C 558.207 323.754, 558.991 345.604, 558.995 379.191 C 558.998 397.171, 559.400 412.129, 559.888 412.431 C 561.717 413.561, 562.007 403.610, 561.036 373 C 560.486 355.675, 560.028 335.004, 560.018 327.064 C 559.997 310.095, 558.992 305.284, 551.555 286.533 C 544.647 269.114, 531.525 246.939, 529.037 248.477 C 528.608 248.743, 527.444 246.831, 526.450 244.230 C 525.457 241.628, 523.191 237.025, 521.416 234 L 518.188 228.500 486.844 212.789 C 450.153 194.398, 445.600 192.936, 409.636 188.002 C 397.461 186.331, 386.719 184.522, 385.764 183.982 C 384.809 183.442, 383.909 183.046, 383.764 183.102 C 383.619 183.158, 382.150 183.579, 380.500 184.037 M 237.833 248.750 C 235.167 251.910, 229.276 261.396, 226.187 267.504 C 222.057 275.671, 219.572 282.365, 215.422 296.500 L 211.899 308.500 210.858 358.500 C 209.793 409.626, 210.162 425.151, 212.353 421.441 C 213.182 420.038, 213.425 406.565, 213.229 372.821 C 212.968 327.937, 213.453 318.016, 215.946 317.185 C 216.526 316.991, 217 316.228, 217 315.488 C 217 314.748, 217.636 313.507, 218.413 312.730 C 220.271 310.872, 224 303.878, 224 302.251 C 224 301.548, 224.426 300.191, 224.947 299.236 C 225.467 298.281, 226.613 295.025, 227.493 292 C 230.914 280.240, 233.382 272.376, 234.554 269.500 C 235.227 267.850, 236.081 265.375, 236.452 264 C 236.822 262.625, 237.510 260.600, 237.980 259.500 C 241.961 250.185, 241.876 243.959, 237.833 248.750 M 382.165 431.991 C 380.710 433.959, 379.631 437.465, 379.010 442.241 C 377.053 457.309, 374.005 471.057, 371.546 475.909 C 367.014 484.852, 368.230 487.396, 378.718 490.914 C 386.062 493.377, 387.894 493.472, 391.669 491.584 C 393.226 490.806, 395.750 489.685, 397.278 489.093 C 401.428 487.486, 401.602 485.478, 398.227 478.151 C 394.292 469.609, 391.259 456.160, 390.411 443.500 C 390.043 438, 389.361 432.488, 388.895 431.250 C 387.719 428.120, 384.788 428.442, 382.165 431.991 M 277 444.684 C 277 448.989, 277.400 449.754, 281.948 454.137 C 288.300 460.260, 293.715 463, 299.460 463 C 301.957 463, 304 463.450, 304 464 C 304 464.550, 304.490 465, 305.090 465 C 305.689 465, 306.969 465.976, 307.935 467.168 C 309.351 468.917, 310.639 469.301, 314.595 469.158 C 322.410 468.873, 335.088 464.064, 341.010 459.138 C 343.308 457.226, 343.346 457.065, 341.500 457.045 C 340.400 457.033, 337.025 457.710, 334 458.549 C 330.975 459.388, 323.438 460.349, 317.250 460.686 C 311.063 461.022, 306 461.707, 306 462.208 C 306 462.708, 305.502 462.810, 304.893 462.434 C 304.097 461.942, 304.116 461.546, 304.964 461.022 C 305.694 460.571, 303.326 458.540, 298.725 455.673 C 294.646 453.130, 288.522 448.564, 285.117 445.525 C 281.711 442.486, 278.491 440, 277.962 440 C 277.433 440, 277 442.108, 277 444.684 M 485.832 444.561 C 479.741 449.770, 472.529 454.707, 466 458.137 C 462.089 460.191, 460.192 460.487, 451.500 460.401 C 445.669 460.343, 438.939 459.614, 435.356 458.651 C 426.348 456.231, 424.805 456.427, 428.500 459.524 C 432.898 463.210, 437.614 465.522, 445.828 468.016 C 453.926 470.476, 459.417 470.212, 463.895 467.146 C 465.328 466.166, 468.489 464.790, 470.921 464.090 C 478.694 461.852, 495 450.052, 495 446.664 C 495 444.262, 493.150 440, 492.106 440 C 491.588 440, 488.764 442.052, 485.832 444.561 M 394.664 535.235 C 394.024 535.639, 395.413 535.976, 397.750 535.985 C 400.087 535.993, 402 535.568, 402 535.040 C 402 533.959, 396.452 534.106, 394.664 535.235 M 378.382 540.625 C 375.697 541.333, 373.136 541.932, 372.691 541.956 C 372.246 541.980, 372.142 542.421, 372.460 542.936 C 372.782 543.456, 376.920 543.684, 381.769 543.448 C 394.434 542.834, 399.187 542.057, 398.722 540.680 C 398.170 539.041, 384.531 539.005, 378.382 540.625 M 385 564.500 C 385 565.325, 385.177 566, 385.393 566 C 385.609 566, 386.045 565.325, 386.362 564.500 C 386.678 563.675, 386.501 563, 385.969 563 C 385.436 563, 385 563.675, 385 564.500 M 384.534 574.934 C 382.648 578.582, 382.535 585.982, 384.329 588.435 C 385.530 590.077, 386.037 590.124, 389.579 588.922 C 394.791 587.154, 395.913 586.109, 393.851 584.945 C 392.945 584.433, 391.660 581.752, 390.997 578.986 C 389.422 572.423, 386.712 570.723, 384.534 574.934 M 458 606.069 C 452.225 607.071, 447.275 607.948, 447 608.016 C 445.486 608.393, 451.056 609.870, 454.215 609.930 C 458.511 610.011, 466.828 607.461, 468.964 605.407 C 469.770 604.633, 469.995 604.055, 469.464 604.123 C 468.934 604.190, 463.775 605.066, 458 606.069 M 300 605.291 C 300 606.507, 310.040 609.065, 315.364 609.205 C 323.912 609.430, 324.637 607.438, 316.306 606.618 C 312.563 606.249, 307.363 605.676, 304.750 605.345 C 302.137 605.014, 300 604.989, 300 605.291" stroke="none" fill="black" fill-rule="evenodd"/>
	<path fill-opacity="0.506" d="M -0 384.001 L -0 768.003 384.250 767.751 L 768.500 767.500 768.751 383.750 L 769.003 0 384.501 0 L 0 0 -0 384.001 M 0.495 384.500 C 0.495 595.700, 0.610 681.951, 0.750 576.169 C 0.890 470.386, 0.890 297.586, 0.750 192.169 C 0.610 86.751, 0.495 173.300, 0.495 384.500 M 382.638 182.500 C 382.251 183.509, 380.662 184.001, 377.781 184.004 C 371.664 184.010, 349.308 188.165, 329.500 192.976 C 315.735 196.320, 309.876 198.333, 298.713 203.553 C 291.130 207.099, 284.739 210, 284.512 210 C 284.285 210, 278.722 212.925, 272.149 216.500 C 265.577 220.075, 259.064 223, 257.676 223 C 254.942 223, 249 227.401, 249 229.426 C 249 230.112, 244.925 236.485, 239.945 243.587 C 224.903 265.037, 220.102 275.195, 214.071 298.336 C 211.342 308.809, 211.126 311.079, 210.582 335 C 209.511 382.137, 210.636 531.471, 212.082 534 C 212.569 534.852, 212.983 516.288, 213.040 491 C 213.095 466.525, 213.527 445.600, 214 444.500 C 214.596 443.112, 214.900 442.959, 214.993 444 C 215.075 444.921, 215.476 444.632, 216.031 443.250 C 216.529 442.013, 217.400 441, 217.968 441 C 218.535 441, 219 440.264, 219 439.365 C 219 437.768, 221.903 434.582, 225.927 431.764 C 227.030 430.991, 228.592 429.087, 229.399 427.532 L 230.866 424.704 231.780 428.102 C 232.405 430.426, 232.910 419.810, 233.379 394.500 C 234.147 353.014, 235.650 319.120, 236.868 315.828 C 237.627 313.777, 237.716 313.829, 238.280 316.650 C 239.593 323.216, 241.078 359.899, 241.912 406.376 C 242.599 444.690, 243.070 455.425, 244.090 456.056 C 245.758 457.087, 249 455.376, 249 453.465 C 249 452.659, 249.450 452, 250 452 C 250.550 452, 251 451.335, 251 450.522 C 251 449.429, 252.209 449.811, 255.646 451.991 C 258.202 453.611, 260.649 454.717, 261.084 454.448 C 261.519 454.179, 260.538 451.100, 258.903 447.605 C 254.644 438.505, 253.794 431.542, 253.638 404.466 C 253.515 383.052, 253.692 380.137, 255.263 377.732 C 257.889 373.709, 261.015 373.393, 268.507 376.392 C 277.652 380.053, 279.095 379.743, 273.992 375.215 C 269.765 371.464, 269.740 371.403, 271.261 368.462 C 272.105 366.831, 273.636 364.734, 274.664 363.804 C 276.430 362.206, 276.855 362.278, 282.405 365.119 C 301.940 375.122, 320.519 392.259, 316.751 396.800 C 315.962 397.751, 316.069 398.498, 317.149 399.578 C 319.744 402.172, 346.096 415, 348.849 415.008 C 350.307 415.013, 354.530 414.240, 358.233 413.291 C 366.047 411.289, 366.908 411.719, 367.259 417.804 C 367.474 421.542, 367.768 421.988, 370 421.977 C 371.375 421.970, 374.964 420.606, 377.976 418.946 L 383.451 415.928 387.976 418.368 C 394.443 421.856, 400.798 423.602, 402.139 422.261 C 402.905 421.495, 402.466 420.696, 400.607 419.478 C 397.572 417.490, 397.288 415.345, 399.750 413.003 C 401.385 411.448, 401.797 411.472, 406 413.368 C 408.843 414.651, 412.709 415.418, 416.500 415.449 C 421.877 415.495, 423.848 414.846, 435.488 409.192 C 458.372 398.077, 465.778 393.151, 461.750 391.724 C 460.422 391.253, 465.287 386, 467.052 386 C 467.573 386, 468.001 385.663, 468.001 385.250 C 468.003 384.105, 476.627 374.363, 480.360 371.291 C 481.168 370.625, 482.992 369.789, 484.414 369.432 C 485.836 369.075, 487 368.417, 487 367.969 C 487 366.330, 493.609 364.901, 496.356 365.945 C 499.074 366.979, 499.976 368.975, 497.750 369.032 C 496.987 369.051, 497.181 369.581, 498.250 370.392 C 499.212 371.123, 500 371.949, 500 372.228 C 500 372.507, 496.627 374.708, 492.505 377.118 C 488.383 379.528, 485.008 381.798, 485.005 382.162 C 485.002 382.527, 488.938 381.207, 493.750 379.231 C 504.734 374.720, 512.651 373.852, 515.373 376.860 C 517.129 378.800, 517.215 380.635, 516.792 407.212 L 516.342 435.500 513.175 443.500 C 511.434 447.900, 510.007 451.837, 510.005 452.250 C 509.992 454.319, 513.357 452.408, 519.276 446.984 C 524.944 441.791, 525.988 440.282, 526.918 435.945 C 528.063 430.608, 529.821 390.467, 530.113 363 C 530.280 347.374, 532.336 317.331, 533.306 316.361 C 534.208 315.459, 534.971 335.367, 535.497 373.500 C 535.793 394.950, 536.289 416.597, 536.600 421.604 L 537.165 430.708 543.582 430.817 C 547.857 430.890, 550 430.538, 550 429.763 C 550 428.899, 550.309 428.909, 551.200 429.800 C 552.948 431.548, 554.470 431.272, 552.981 429.477 C 551.931 428.211, 551.981 428.056, 553.281 428.554 C 554.142 428.885, 555.091 429.795, 555.391 430.577 C 556.125 432.490, 558 432.392, 558 430.441 C 558 429.517, 557.530 429.173, 556.845 429.595 C 556.124 430.041, 555.963 429.869, 556.415 429.138 C 556.813 428.494, 557.557 428.226, 558.069 428.543 C 558.624 428.885, 559 449.392, 559 479.259 C 559 511.601, 559.344 529.056, 559.969 528.431 C 560.559 527.841, 561.139 504.641, 561.453 468.981 C 561.737 436.817, 562.062 406.675, 562.175 402 C 562.554 386.315, 560.845 314.558, 559.969 309.343 C 559.244 305.032, 554.241 289.999, 551.034 282.500 C 545.695 270.013, 536.336 254.308, 519.702 229.919 C 518.021 227.454, 515.552 225.645, 511.786 224.116 C 508.776 222.894, 495.524 216.349, 482.336 209.571 C 449.867 192.881, 442.716 190.911, 391.179 184.459 C 388.056 184.068, 385.636 183.216, 385.322 182.396 C 384.621 180.569, 383.361 180.617, 382.638 182.500 M 273.539 311.552 C 271.120 313.793, 270.883 314.640, 271.095 320.267 C 271.224 323.695, 271.593 326.725, 271.915 327 C 272.237 327.275, 272.992 328.390, 273.594 329.477 C 274.280 330.715, 278.176 332.692, 284.018 334.767 C 293.119 337.999, 297.352 338.366, 295.222 335.738 C 293.867 334.067, 286.856 320.191, 286.610 318.694 C 286.502 318.037, 285.591 315.658, 284.584 313.407 C 283.008 309.883, 282.300 309.298, 279.486 309.192 C 277.272 309.109, 275.353 309.870, 273.539 311.552 M 381.081 426.925 C 377.689 430.056, 376.719 431.724, 376.283 435.175 C 375.983 437.554, 375.138 440.191, 374.407 441.037 C 372.891 442.787, 370.466 448.249, 366.515 458.808 C 365.011 462.828, 362.448 467.553, 360.819 469.308 C 355.336 475.217, 354.132 479.500, 357.955 479.500 C 358.755 479.500, 359.677 480.625, 360.003 482 C 360.378 483.584, 361.294 484.501, 362.503 484.503 C 363.692 484.505, 364.625 485.411, 364.978 486.908 C 365.581 489.462, 365.980 489.765, 373 493.006 C 383.940 498.057, 392.217 497.396, 400.949 490.776 C 403.326 488.974, 406.432 486.727, 407.851 485.783 C 409.270 484.839, 410.789 483.100, 411.226 481.919 C 411.804 480.356, 412.591 479.921, 414.122 480.322 C 415.995 480.811, 416.159 480.547, 415.629 477.897 C 414.954 474.518, 412.680 471.191, 409.307 468.647 C 407.077 466.965, 407 466.977, 407 469.012 C 407 470.170, 407.408 470.866, 407.907 470.558 C 408.405 470.249, 408.565 470.946, 408.262 472.107 C 407.611 474.595, 407.696 474.770, 399.408 453.853 C 395.624 444.306, 394 438.824, 394 435.604 C 394 431.612, 393.486 430.472, 390.117 427.001 C 387.981 424.801, 386.031 423, 385.783 423 C 385.536 423, 383.420 424.766, 381.081 426.925 M 506.037 426.403 C 504.677 429.981, 503.691 430.154, 499.785 427.500 L 496.236 425.088 494.094 430.964 C 492.519 435.281, 490.494 438.242, 486.457 442.131 C 479.360 448.966, 468.039 456.494, 461.681 458.606 C 454.392 461.027, 442.932 459.923, 429.424 455.498 C 423.551 453.574, 418.601 452, 418.424 452 C 418.247 452, 418.780 453.623, 419.609 455.607 C 420.943 458.799, 420.945 459.403, 419.630 460.857 C 418.445 462.166, 418.150 465.659, 418.175 478.038 C 418.195 487.453, 417.728 495.177, 416.990 497.640 C 415.167 503.723, 416.562 505.533, 424.095 506.860 C 427.544 507.467, 430.955 507.574, 431.870 507.103 C 432.766 506.641, 435.142 505.967, 437.150 505.605 C 441.897 504.749, 443.192 503.040, 443.481 497.250 C 444.064 485.532, 445.247 479.939, 447.397 478.736 C 451.476 476.454, 456.571 475.025, 463 474.361 C 468.995 473.742, 473.893 471.654, 473.969 469.685 C 474.008 468.666, 479.236 464.149, 483.441 461.500 C 485.188 460.400, 488.840 457.700, 491.558 455.500 C 503.703 445.670, 506.875 440.878, 507.692 431.129 C 508.301 423.866, 507.678 422.086, 506.037 426.403 M 271.549 432.542 C 269.386 434.547, 268.510 434.838, 267.403 433.920 C 265.031 431.951, 265.679 437.571, 268.463 443.113 C 271.909 449.974, 277.051 454.668, 292.733 465.269 C 304.117 472.963, 305.779 473.385, 321.656 472.615 L 334.988 471.969 332.494 477.609 C 331.122 480.711, 330 484.093, 330 485.124 C 330 486.156, 329.612 487, 329.139 487 C 327.920 487, 329.061 492.204, 330.622 493.765 C 331.337 494.479, 332.190 496.737, 332.518 498.782 C 333.708 506.193, 334.096 507.086, 336.528 508.011 C 337.888 508.528, 339 509.337, 339 509.809 C 339 511.725, 342.746 510.530, 346.671 507.362 C 351.776 503.242, 352.622 500.035, 350.895 491.347 C 349.762 485.650, 349.814 483.998, 351.308 478.167 C 353.697 468.846, 353.542 466.568, 350.425 465.148 C 349.009 464.503, 347.465 464.213, 346.994 464.504 C 344.799 465.860, 345.350 462.840, 348.083 458.531 C 349.743 455.912, 350.929 453.595, 350.717 453.383 C 350.504 453.171, 346.769 453.953, 342.415 455.122 C 322.767 460.395, 317.191 460.974, 308.288 458.665 C 297.684 455.914, 281.152 443.111, 277.115 434.522 C 275.946 432.035, 274.833 430, 274.641 430 C 274.449 430, 273.058 431.144, 271.549 432.542 M 484.049 470.750 C 482.753 471.712, 479.624 474.462, 477.096 476.861 L 472.500 481.222 478.750 476.463 C 484.522 472.069, 487.843 469, 486.826 469 C 486.595 469, 485.346 469.788, 484.049 470.750 M 362 471.500 C 362 472.325, 362.177 473, 362.393 473 C 362.609 473, 363.045 472.325, 363.362 471.500 C 363.678 470.675, 363.501 470, 362.969 470 C 362.436 470, 362 470.675, 362 471.500 M 411 486.059 C 411 486.641, 411.450 486.840, 412 486.500 C 412.550 486.160, 413 485.684, 413 485.441 C 413 485.198, 412.550 485, 412 485 C 411.450 485, 411 485.477, 411 486.059 M 407 524.309 C 404.525 524.897, 401.906 525.968, 401.180 526.688 C 400.454 527.408, 398.654 528.285, 397.180 528.636 C 395.706 528.988, 393.985 529.680, 393.355 530.173 C 392.725 530.667, 384.850 531.311, 375.855 531.605 C 366.860 531.898, 358.600 532.257, 357.500 532.402 C 351.845 533.148, 346.899 534.355, 346.437 535.102 C 345.463 536.677, 351.490 537.432, 364.750 537.396 C 372.038 537.376, 378 537.680, 378 538.072 C 378 539.124, 364.427 542, 359.459 542 C 351.016 542, 349.783 543.940, 356.332 546.923 C 360.066 548.624, 361.550 548.769, 367.082 547.970 C 370.612 547.460, 375.072 546.583, 376.993 546.021 C 378.915 545.460, 384.265 545, 388.883 545 C 395.725 545, 397.517 545.324, 398.560 546.750 C 401.321 550.522, 414.734 547.857, 417.815 542.924 C 418.854 541.261, 418.370 541.163, 410.504 541.445 C 403.303 541.702, 401.834 541.474, 400.385 539.873 C 398.773 538.092, 398.808 537.999, 401.095 537.975 C 406.994 537.913, 417.246 537.057, 419.089 536.472 C 421.069 535.843, 421.063 535.791, 418.805 533.907 C 412.470 528.622, 411.340 527.241, 411.657 525.168 C 411.839 523.975, 411.878 523.054, 411.744 523.120 C 411.610 523.186, 409.475 523.721, 407 524.309 M 394.500 552 C 394.160 552.550, 391.264 553, 388.063 553 C 381.845 553, 380.426 553.865, 379.653 558.128 C 378.724 563.254, 370.039 569.550, 365.477 568.405 C 364.084 568.055, 360.374 569.047, 355.855 570.977 C 343.913 576.077, 343.955 576.048, 345.078 578.146 C 346.252 580.340, 347.197 580.382, 352.500 578.471 C 354.700 577.679, 356.613 577.023, 356.750 577.015 C 356.887 577.007, 357 578.019, 357 579.265 C 357 580.510, 357.900 583.209, 359 585.261 C 360.100 587.314, 361 589.808, 361 590.805 C 361 595.273, 363.432 596.357, 375.812 597.407 C 378.734 597.655, 381.801 598.420, 382.628 599.106 C 383.776 600.059, 384.885 600.091, 387.316 599.244 C 389.067 598.633, 393.200 597.830, 396.500 597.461 C 404.754 596.536, 406.398 595.266, 407.872 588.682 C 408.550 585.653, 409.756 582.924, 410.552 582.618 C 411.395 582.295, 412 580.737, 412 578.892 C 412 577.060, 412.739 575.141, 413.750 574.350 C 415.369 573.082, 415.207 572.718, 411.583 569.489 C 407.061 565.460, 404.480 565.055, 403.646 568.244 C 403.098 570.340, 402.949 570.378, 401.391 568.820 C 399.845 567.273, 399.841 566.855, 401.341 563.105 C 403.316 558.171, 402.729 556.319, 398.928 555.484 C 395.661 554.767, 393.759 552.729, 396.641 553.034 C 400.031 553.392, 402 553.012, 402 552 C 402 551.450, 400.452 551, 398.559 551 C 396.666 551, 394.840 551.450, 394.500 552 M 465 603.084 C 463.075 603.567, 457.024 604.660, 451.553 605.512 C 440.998 607.156, 439.736 607.578, 442.357 608.583 C 444.448 609.386, 444.388 610.557, 442 615.500 C 440.795 617.995, 440.055 621.676, 440.034 625.282 C 440.004 630.344, 440.274 631.166, 442.202 631.879 C 447.945 634.003, 464.263 622.395, 468.157 613.415 C 468.852 611.812, 470.226 609.427, 471.210 608.115 C 475.216 602.777, 473.088 601.053, 465 603.084 M 297 604.282 C 297 606.015, 299.591 609, 301.096 609 C 301.621 609, 302.455 610.066, 302.950 611.369 C 303.870 613.789, 316.964 621, 320.439 621 C 321.370 621, 323.031 621.481, 324.130 622.069 C 328.548 624.434, 330.347 619.159, 327.470 612.274 C 326.053 608.883, 326.072 608.537, 327.720 607.581 C 329.112 606.774, 327.536 606.286, 320.500 605.344 C 301.149 602.752, 297 602.565, 297 604.282" stroke="none" fill="black" fill-rule="evenodd"/>
	<path fill-opacity="0.111" d="M 1.079 42.583 C 1.127 43.748, 1.364 43.985, 1.683 43.188 C 1.972 42.466, 1.936 41.603, 1.604 41.271 C 1.272 40.939, 1.036 41.529, 1.079 42.583 M 0.727 57.500 C 0.335 61.350, 0.011 222.788, 0.007 416.251 L -0 768.003 384.250 767.751 L 768.500 767.500 768.751 413.190 C 768.919 176.845, 768.669 59.086, 768.001 59.499 C 767.451 59.840, 766.925 59.529, 766.832 58.809 C 766.187 53.775, 765.203 84.816, 764.986 117 C 764.844 138.175, 764.533 154.488, 764.294 153.250 C 763.789 150.625, 762.472 150.385, 760.329 152.528 C 759.110 153.747, 759.048 154.353, 760.023 155.528 C 761.031 156.743, 760.886 157, 759.189 157 C 757.691 157, 757.047 157.744, 756.816 159.743 C 756.533 162.201, 755.982 162.565, 751.500 163.255 C 743.038 164.558, 727.818 166.058, 721.313 166.230 C 717.910 166.320, 715.349 166.755, 715.622 167.197 C 715.895 167.639, 713.504 168.064, 710.309 168.143 C 699.991 168.397, 690.515 167.798, 689.920 166.853 C 689.601 166.347, 688.589 166.221, 687.670 166.573 C 686.698 166.946, 686 166.726, 686 166.048 C 686 165.407, 685.641 165.104, 685.202 165.375 C 684.763 165.646, 683.751 165.405, 682.952 164.840 C 681.760 163.996, 681.808 163.910, 683.218 164.362 C 684.163 164.665, 685.202 164.482, 685.527 163.956 C 685.869 163.404, 684.299 163.006, 681.809 163.015 C 678.511 163.027, 677.852 163.277, 679 164.081 C 680.211 164.929, 680.109 165.023, 678.475 164.570 C 677.361 164.261, 673.986 164.957, 670.975 166.117 C 667.964 167.277, 664.197 168.461, 662.604 168.748 C 661.012 169.035, 658.554 169.869, 657.142 170.601 C 655.145 171.637, 654.405 171.663, 653.803 170.716 C 653.252 169.849, 653.026 169.832, 653.015 170.656 C 653.004 171.530, 652.391 171.530, 650.500 170.656 C 649.124 170.020, 648.199 168.967, 648.443 168.315 C 648.688 167.663, 648.350 166.876, 647.694 166.566 C 647.037 166.257, 647.982 166.152, 649.794 166.335 C 651.606 166.517, 653.278 166.359, 653.510 165.984 C 653.742 165.608, 650.838 165.211, 647.056 165.100 C 640.085 164.897, 637.606 166.027, 639.959 168.337 C 640.862 169.224, 641.067 169.158, 640.821 168.059 C 640.639 167.242, 641.365 166.489, 642.500 166.318 L 644.500 166.017 642.500 166.938 C 641.400 167.445, 641.063 167.891, 641.750 167.930 C 642.438 167.968, 643 168.410, 643 168.912 C 643 169.413, 642.212 169.696, 641.250 169.540 C 640.288 169.384, 638.943 169.699, 638.263 170.240 C 637.582 170.781, 636.232 170.897, 635.263 170.497 C 632.027 169.162, 627.008 168.204, 627.510 169.017 C 628.566 170.725, 626.763 173.060, 624.856 172.454 C 623.581 172.049, 623.041 172.288, 623.225 173.175 C 623.534 174.664, 621.474 174.574, 615.824 172.850 C 613.803 172.234, 611.440 172.001, 610.574 172.333 C 608.322 173.197, 608.630 176.090, 611.041 176.721 C 612.163 177.014, 612.925 177.724, 612.734 178.299 C 612.254 179.738, 607.667 179.979, 606.765 178.613 C 606.307 177.919, 606.025 178.159, 606.015 179.250 C 605.996 181.402, 605.574 181.422, 602.509 179.414 C 601.177 178.541, 599.642 178.103, 599.096 178.441 C 598.520 178.796, 598.275 178.166, 598.512 176.938 C 598.869 175.083, 598.715 174.987, 597.268 176.161 C 595.873 177.292, 595.748 177.281, 596.464 176.092 C 597.141 174.970, 596.825 174.839, 594.906 175.446 C 591.280 176.592, 584.033 176.756, 584.700 175.677 C 585.018 175.162, 584.732 174.923, 584.064 175.145 C 581.613 175.962, 582.591 177.509, 585.750 177.813 C 587.538 177.986, 589 178.496, 589 178.947 C 589 180.563, 585.087 180.749, 582.927 179.236 C 580.926 177.835, 580.424 177.855, 577.447 179.458 C 575.518 180.497, 573.621 180.893, 572.835 180.420 C 571.783 179.786, 571.747 179.922, 572.663 181.058 C 573.637 182.265, 573.148 182.533, 569.663 182.702 C 566.528 182.854, 565.994 182.686, 567.500 182.022 C 569.136 181.301, 569.192 181.128, 567.809 181.070 C 565.325 180.967, 564.688 182.704, 566.729 184.014 C 568.400 185.087, 568.401 185.120, 566.741 184.604 C 565.774 184.302, 563.836 184.492, 562.434 185.025 C 560.750 185.665, 560.095 185.656, 560.502 184.997 C 560.860 184.418, 559.848 184, 558.090 184 C 556.091 184, 555.218 184.424, 555.521 185.250 C 556.444 187.770, 554.242 189.337, 550.012 189.172 C 547.449 189.071, 545.270 189.587, 544.344 190.513 C 543.516 191.341, 542.425 191.763, 541.919 191.450 C 541.414 191.138, 541 191.359, 541 191.941 C 541 192.523, 540.293 193, 539.429 193 C 537.855 193, 534.770 195.436, 535.464 196.131 C 535.666 196.334, 534.053 196.605, 531.878 196.733 C 529.351 196.882, 527.742 196.492, 527.419 195.650 C 526.774 193.969, 524 193.924, 524 195.595 C 524 197.093, 521.274 200, 519.870 200 C 519.326 200, 519.131 199.597, 519.435 199.105 C 519.740 198.612, 519.279 197.937, 518.412 197.605 C 516.126 196.727, 516 196.800, 516 198.981 C 516 200.946, 512.366 202.636, 509 202.236 C 508.029 202.121, 507.941 202.254, 508.750 202.612 C 510.797 203.520, 510.167 205.277, 507.999 204.710 C 506.898 204.422, 506.226 204.556, 506.505 205.008 C 506.784 205.460, 506.672 206.019, 506.256 206.251 C 505.840 206.483, 505.950 206.598, 506.500 206.508 C 507.050 206.418, 508.264 207.144, 509.199 208.121 C 510.800 209.796, 510.785 209.933, 508.934 210.521 C 507.854 210.864, 507.243 211.583, 507.575 212.121 C 507.965 212.753, 508.602 212.746, 509.380 212.100 C 510.240 211.386, 510.623 211.640, 510.725 212.994 C 510.826 214.335, 510.377 214.735, 509.184 214.368 C 507.704 213.912, 507.712 213.986, 509.250 214.974 C 511.265 216.270, 511.602 218.993, 509.750 219.015 C 507.118 219.048, 511.568 220.970, 514.309 220.985 C 516.180 220.995, 516.880 220.615, 516.405 219.845 C 515.962 219.130, 516.130 218.962, 516.845 219.405 C 517.480 219.797, 518 220.841, 518 221.726 C 518 222.610, 518.293 223.040, 518.652 222.682 C 519.611 221.722, 522.165 227.129, 521.531 228.779 C 521.232 229.558, 525.401 236.968, 530.850 245.344 C 545.426 267.749, 548.185 272.960, 554.473 289.968 C 559.010 302.239, 560.397 307.405, 561.185 314.968 C 561.779 320.662, 562.150 364.959, 562.107 424.986 C 562.044 513.724, 561.845 526.406, 560.406 533.459 C 558.435 543.123, 555.198 550.712, 550.312 557.118 C 546.850 561.658, 544.355 562.844, 545.714 559.304 C 546.132 558.213, 545.952 557.912, 545.170 558.395 C 544.464 558.831, 544 558.487, 544 557.528 C 544 556.653, 543.319 555.676, 542.487 555.357 C 541.320 554.909, 541.110 553.773, 541.569 550.388 C 541.955 547.541, 541.784 546, 541.082 546 C 539.608 546, 539.705 543.265, 541.198 542.767 C 542.114 542.462, 542.087 541.563, 541.080 538.934 C 538.350 531.803, 536.873 529, 535.846 529 C 535.263 529, 535.054 528.302, 535.382 527.448 C 535.709 526.594, 535.645 526.102, 535.239 526.353 C 534.832 526.604, 534.664 505.815, 534.864 480.155 C 535.317 422.135, 534.103 336.497, 532.846 337.754 C 532.343 338.257, 531.516 359.106, 531.007 384.084 C 529.991 434.021, 529.479 450.630, 527.940 483.500 C 526.775 508.389, 526.503 510.752, 524.506 513.390 C 523.142 515.192, 522.954 515.200, 520.451 513.560 C 519.007 512.614, 518.075 511.592, 518.378 511.289 C 518.681 510.985, 518.513 509.958, 518.003 509.006 C 517.494 508.054, 516.819 505.751, 516.503 503.888 C 516.187 502.024, 515.735 499.825, 515.499 499 C 515.263 498.175, 514.820 495.250, 514.514 492.500 C 512.913 478.104, 507.818 460.012, 505.362 460.004 C 502.560 459.995, 476.323 479.765, 469.682 486.891 C 464.370 492.589, 461.874 497.618, 455.478 515.500 C 453.117 522.100, 448.894 532.559, 446.093 538.742 C 443.292 544.925, 441 550.270, 441 550.618 C 441 550.967, 439.682 553.846, 438.072 557.015 C 436.461 560.184, 434.479 565.014, 433.667 567.749 C 432.855 570.483, 430.927 575.371, 429.381 578.610 C 426.684 584.265, 426.288 587.356, 427.987 589.500 C 429.059 590.852, 428.967 595.902, 427.859 596.587 C 427.368 596.890, 427.217 597.542, 427.522 598.035 C 428.415 599.481, 420.066 604.928, 414.564 606.489 C 395.765 611.822, 360.607 610.592, 349.804 604.222 C 348.312 603.343, 347.419 602.157, 347.804 601.567 C 348.787 600.059, 348.795 592, 347.813 592 C 347.366 592, 347.089 591.663, 347.198 591.250 C 347.603 589.718, 345.875 586.166, 344.462 585.624 C 343.658 585.315, 343 584.385, 343 583.556 C 343 582.727, 342.098 580.575, 340.995 578.774 C 339.893 576.973, 337.821 571.675, 336.391 567 C 334.962 562.325, 332.264 555.888, 330.396 552.696 C 328.528 549.504, 327 546.401, 327 545.801 C 327 545.200, 324.133 539.037, 320.629 532.104 C 317.126 525.172, 313.467 517.025, 312.499 514 C 311.531 510.975, 308.896 504.675, 306.644 500 C 303.302 493.063, 300.889 489.832, 293.524 482.429 C 284.814 473.674, 272.715 463.979, 270.550 464.020 C 267.739 464.072, 260.885 479.899, 257.564 494.004 C 256.335 499.224, 254.721 504.493, 253.926 505.882 C 253.417 506.772, 252.560 508.743, 252.021 510.262 C 251.481 511.782, 249.853 513.565, 248.403 514.226 C 246.096 515.277, 245.549 515.161, 244.045 513.304 C 242.566 511.477, 242.233 507.700, 241.665 486.340 C 241.301 472.678, 241.003 449.310, 241.002 434.411 C 240.999 400.370, 239.929 367.496, 238.879 369.195 C 238.261 370.196, 237.767 370.063, 236.703 368.608 C 235.513 366.981, 235.237 369.686, 234.666 388.613 C 233.551 425.519, 233.872 508.313, 235.167 518.040 C 236.162 525.515, 236.100 527.595, 234.748 532.154 C 233.875 535.094, 233.186 538.175, 233.218 539 C 233.320 541.704, 230.945 549, 229.961 549 C 229.433 549, 228.996 550.237, 228.991 551.750 C 228.985 553.607, 228.005 555.272, 225.973 556.876 C 223.582 558.766, 223.203 559.540, 224.125 560.651 C 224.763 561.419, 225.048 562.286, 224.758 562.576 C 223.880 563.453, 218.087 555.829, 215.580 550.500 C 211.653 542.149, 211 536.317, 211.008 509.701 C 211.012 495.840, 210.529 464.700, 209.935 440.500 C 209.197 410.484, 209.161 382.198, 209.821 351.500 C 210.761 307.811, 210.864 306.234, 213.342 297.375 C 220.304 272.486, 223.904 265.100, 241.129 240.357 C 247.120 231.750, 248.905 228, 247.008 228 C 246.389 228, 246.203 228.520, 246.595 229.155 C 246.988 229.789, 246.884 230.046, 246.364 229.725 C 245.844 229.403, 245.308 227.497, 245.172 225.488 C 245.031 223.397, 245.329 222.086, 245.869 222.419 C 246.388 222.740, 246.620 224.014, 246.386 225.251 C 245.988 227.347, 246.023 227.364, 246.909 225.500 C 247.730 223.773, 247.869 223.739, 247.930 225.250 C 247.999 226.963, 250 227.829, 250 226.146 C 250 224.680, 245.169 220, 243.655 220 C 242.862 220, 241.955 219.325, 241.638 218.500 C 240.975 216.772, 235.463 216.442, 234.457 218.070 C 233.128 220.220, 229.567 220.838, 227.750 219.234 C 226.787 218.385, 226 218.172, 226 218.762 C 226 219.351, 226.562 220.060, 227.250 220.338 C 227.938 220.615, 227.112 220.878, 225.417 220.921 C 223.721 220.964, 221.996 221.338, 221.583 221.750 C 221.171 222.162, 220.360 222.500, 219.781 222.500 C 219.203 222.500, 218.355 223.513, 217.897 224.750 C 217.407 226.074, 217.450 227, 218.001 227 C 218.516 227, 218.664 227.713, 218.329 228.584 C 217.840 229.859, 217.557 229.908, 216.876 228.834 C 216.243 227.835, 216.027 227.814, 216.015 228.750 C 216.007 229.438, 215.325 230, 214.500 230 C 213.675 230, 213 229.518, 213 228.929 C 213 228.339, 212.396 227.253, 211.657 226.514 C 210.055 224.913, 200.426 221.907, 199.587 222.746 C 199.264 223.069, 199 222.808, 199 222.167 C 199 221.525, 198.325 221, 197.500 221 C 196.675 221, 196 220.498, 196 219.883 C 196 219.248, 195.112 218.999, 193.939 219.306 C 192.677 219.636, 191.666 219.293, 191.332 218.422 C 191.032 217.640, 190.133 217, 189.334 217 C 188.535 217, 188.160 216.550, 188.500 216 C 188.840 215.450, 188.390 215, 187.500 215 C 186.610 215, 186.131 214.597, 186.435 214.105 C 186.740 213.612, 186.316 212.952, 185.494 212.636 C 183.203 211.757, 183.677 212.899, 187.577 217.659 C 189.544 220.059, 191.580 221.760, 192.101 221.437 C 192.623 221.115, 192.926 221.447, 192.775 222.176 C 192.624 222.904, 192.988 223.412, 193.583 223.306 C 194.179 223.199, 194.667 223.754, 194.667 224.540 C 194.667 225.617, 194.339 225.696, 193.333 224.862 C 192.600 224.253, 192 224.105, 192 224.533 C 192 224.960, 191.212 224.620, 190.250 223.777 C 189.287 222.934, 187.375 222.431, 186 222.661 C 182.468 223.249, 178.770 222.181, 179.614 220.816 C 180.002 220.188, 179.864 219.966, 179.302 220.313 C 178.748 220.656, 177.441 220.290, 176.397 219.500 C 175.354 218.710, 173.289 218.049, 171.809 218.032 C 170.329 218.014, 168.820 217.518, 168.457 216.930 C 167.300 215.059, 163.598 214.153, 162.058 215.365 C 160.901 216.276, 160.790 216.204, 161.500 215 C 162.239 213.746, 162.128 213.707, 160.825 214.762 C 159.560 215.786, 159.045 215.760, 158.100 214.620 C 157.459 213.848, 156.024 212.978, 154.910 212.687 C 153.320 212.271, 153.121 212.440, 153.982 213.478 C 154.808 214.473, 154.514 215.390, 152.789 217.202 C 151.530 218.523, 150.599 219.407, 150.720 219.165 C 151.224 218.162, 146.747 213, 145.373 213 C 144.446 213, 144.166 212.527, 144.633 211.750 C 145.071 211.021, 144.598 211.126, 143.500 212 C 142.402 212.874, 141.929 212.979, 142.367 212.250 C 142.833 211.474, 142.527 210.953, 141.559 210.875 C 139.860 210.739, 138.145 210.367, 137.750 210.048 C 137.175 209.585, 133.141 209.076, 127.838 208.797 C 124.724 208.634, 122.355 208.319, 122.573 208.099 C 122.791 207.878, 122.188 207.105, 121.234 206.381 C 118.845 204.566, 113.080 204.627, 112.371 206.474 C 111.877 207.763, 111.623 207.766, 110.354 206.497 C 109.555 205.698, 109.037 204.247, 109.201 203.272 C 109.454 201.772, 108.808 201.529, 105 201.688 C 101.408 201.837, 101.004 201.706, 103 201.037 C 105.210 200.297, 105.036 200.186, 101.500 200.084 C 98.836 200.008, 97.955 199.681, 98.863 199.106 C 100.014 198.377, 100.014 198.158, 98.863 197.700 C 98.078 197.388, 98.454 197.124, 99.750 197.079 C 102.924 196.968, 102.554 195.217, 99.250 194.716 C 97.737 194.487, 99.425 194.157, 103 193.982 C 108.259 193.725, 108.736 193.579, 105.500 193.222 C 102.256 192.863, 101.878 192.625, 103.500 191.960 C 104.765 191.442, 102.162 191.115, 96.417 191.070 C 91.421 191.032, 87.020 191.313, 86.638 191.696 C 85.199 193.135, 83 192.761, 83 191.078 C 83 188.585, 82.008 187.925, 79.929 189.038 C 78.805 189.640, 77.902 189.650, 77.540 189.064 C 77.220 188.546, 76.067 188.294, 74.979 188.504 C 73.745 188.742, 73 188.342, 73 187.443 C 73 186.649, 72.546 186, 71.992 186 C 71.386 186, 71.471 185.219, 72.204 184.045 C 72.875 182.970, 73.149 181.816, 72.813 181.480 C 72.477 181.143, 67.811 180.453, 62.445 179.945 C 57.079 179.437, 52.459 178.792, 52.178 178.511 C 51.897 178.230, 52.424 178, 53.349 178 C 54.603 178, 54.973 177.235, 54.803 175 C 54.666 173.206, 54.012 172, 53.177 172 C 52.296 172, 52.621 171.318, 54.053 170.158 C 56.296 168.342, 56.147 168.309, 43.209 167.733 C 31.119 167.195, 26.680 166.358, 26.910 164.660 C 26.960 164.297, 26.993 162.537, 26.985 160.750 C 26.973 158.284, 26.736 157.862, 26 159 C 25.172 160.282, 25.028 160.246, 25.015 158.750 C 25.007 157.783, 24.217 156.969, 23.250 156.930 C 21.719 156.868, 21.742 156.765, 23.427 156.105 C 25.127 155.439, 25.160 155.275, 23.706 154.717 C 22.794 154.367, 21.379 154.764, 20.537 155.606 C 18.731 157.412, 17 156.630, 17 154.008 C 17 152.978, 16.066 151.838, 14.925 151.476 C 13.783 151.114, 13.104 150.562, 13.416 150.251 C 13.728 149.939, 13.531 149.140, 12.979 148.475 C 12.285 147.638, 12.442 146.878, 13.488 146.010 C 14.757 144.957, 15 145.097, 15 146.878 C 15 148.045, 15.450 149, 16 149 C 16.550 149, 17 148.100, 17 147 C 17 145.900, 16.564 145, 16.031 145 C 15.499 145, 15.361 144.212, 15.725 143.250 C 16.354 141.591, 16.296 141.591, 14.613 143.259 C 12.740 145.116, 11 144.778, 11 142.558 C 11 141.829, 10.055 140.986, 8.899 140.684 C 7.717 140.375, 7.092 139.659, 7.470 139.048 C 8.289 137.723, 6.194 131, 4.962 131 C 4.477 131, 4.075 123.912, 4.068 115.250 C 4.054 97.487, 3.040 68.027, 2.079 57.500 L 1.441 50.500 0.727 57.500 M 0.494 414 C 0.494 608.975, 0.609 688.738, 0.750 591.250 C 0.891 493.763, 0.891 334.238, 0.750 236.750 C 0.609 139.263, 0.494 219.025, 0.494 414 M 4.232 140 C 4.232 141.925, 4.438 142.713, 4.689 141.750 C 4.941 140.787, 4.941 139.213, 4.689 138.250 C 4.438 137.287, 4.232 138.075, 4.232 140 M 6.731 143.080 C 7.085 144.432, 7.538 144.886, 7.788 144.137 C 8.028 143.415, 7.750 142.350, 7.168 141.768 C 6.426 141.026, 6.296 141.417, 6.731 143.080 M 10 147 C 10 148.100, 10.354 149, 10.787 149 C 11.220 149, 11.642 148.100, 11.725 147 C 11.808 145.900, 11.454 145, 10.938 145 C 10.422 145, 10 145.900, 10 147 M 17 159.167 C 17 159.625, 17.675 160, 18.500 160 C 19.325 160, 20 159.625, 20 159.167 C 20 158.708, 19.325 158.333, 18.500 158.333 C 17.675 158.333, 17 158.708, 17 159.167 M 759.275 160 C 759.358 161.100, 759.780 162, 760.213 162 C 760.646 162, 761 161.100, 761 160 C 761 158.900, 760.578 158, 760.062 158 C 759.546 158, 759.192 158.900, 759.275 160 M 636 168.500 C 634.990 169.717, 635.030 170, 636.211 170 C 637.012 170, 637.667 169.325, 637.667 168.500 C 637.667 167.675, 637.572 167, 637.456 167 C 637.340 167, 636.685 167.675, 636 168.500 M 668.813 170.683 C 669.534 170.972, 670.397 170.936, 670.729 170.604 C 671.061 170.272, 670.471 170.036, 669.417 170.079 C 668.252 170.127, 668.015 170.364, 668.813 170.683 M 589.345 172.543 C 588.563 174.581, 589.081 174.918, 591.500 173.945 C 593.276 173.231, 593.298 173.133, 591.691 173.070 C 590.696 173.032, 590.160 172.550, 590.500 172 C 590.840 171.450, 590.852 171, 590.528 171 C 590.203 171, 589.671 171.694, 589.345 172.543 M 591.603 177.833 C 591.320 178.292, 591.723 178.667, 592.500 178.667 C 593.277 178.667, 593.680 178.292, 593.397 177.833 C 593.114 177.375, 592.710 177, 592.500 177 C 592.290 177, 591.886 177.375, 591.603 177.833 M 548 181.458 C 548 182.108, 549.829 182.361, 552.750 182.115 C 557.875 181.683, 557.631 181.356, 551.750 180.773 C 549.549 180.555, 548 180.838, 548 181.458 M 607.813 181.683 C 608.534 181.972, 609.397 181.936, 609.729 181.604 C 610.061 181.272, 609.471 181.036, 608.417 181.079 C 607.252 181.127, 607.015 181.364, 607.813 181.683 M 77.872 193.750 C 76.662 195.294, 76.686 195.355, 78.074 194.274 C 79.317 193.306, 79.937 193.306, 81.026 194.274 C 82.189 195.309, 82.198 195.228, 81.079 193.750 C 80.351 192.787, 79.640 192, 79.500 192 C 79.360 192, 78.627 192.787, 77.872 193.750 M 73.813 193.683 C 74.534 193.972, 75.397 193.936, 75.729 193.604 C 76.061 193.272, 75.471 193.036, 74.417 193.079 C 73.252 193.127, 73.015 193.364, 73.813 193.683 M 92.269 194.693 C 93.242 194.947, 94.592 194.930, 95.269 194.656 C 95.946 194.382, 95.150 194.175, 93.500 194.195 C 91.850 194.215, 91.296 194.439, 92.269 194.693 M 96.750 201.662 C 97.438 201.940, 98.563 201.940, 99.250 201.662 C 99.938 201.385, 99.375 201.158, 98 201.158 C 96.625 201.158, 96.063 201.385, 96.750 201.662 M 161 209.059 C 161 209.641, 161.450 209.840, 162 209.500 C 162.550 209.160, 163 208.684, 163 208.441 C 163 208.198, 162.550 208, 162 208 C 161.450 208, 161 208.477, 161 209.059 M 131.211 213.399 C 131.920 214.169, 132.658 214.649, 132.850 214.466 C 133.443 213.902, 131.940 212, 130.902 212 C 130.362 212, 130.501 212.630, 131.211 213.399 M 221 212.393 C 221 212.609, 221.698 213.054, 222.552 213.382 C 223.442 213.723, 223.843 213.555, 223.493 212.989 C 222.906 212.038, 221 211.583, 221 212.393 M 127 215.885 C 127 217.323, 127.461 217.760, 128.542 217.345 C 130.249 216.690, 130.039 214.846, 128.188 214.229 C 127.528 214.009, 127 214.746, 127 215.885 M 156 218.214 C 156 218.646, 156.648 219, 157.441 219 C 158.234 219, 159.100 218.646, 159.368 218.214 C 159.635 217.782, 158.986 217.429, 157.927 217.429 C 156.867 217.429, 156 217.782, 156 218.214 M 212.638 219.500 C 212.955 220.325, 214.066 221, 215.107 221 C 216.148 221, 217 221.540, 217 222.200 C 217 223.094, 217.289 223.111, 218.133 222.267 C 220.028 220.372, 218.322 218, 215.063 218 C 212.807 218, 212.206 218.372, 212.638 219.500 M 237.211 219.538 C 236.145 220.746, 236.189 221, 237.461 221 C 238.307 221, 239 220.325, 239 219.500 C 239 217.676, 238.850 217.680, 237.211 219.538 M 512 219 C 510.793 219.780, 510.951 219.972, 512.809 219.985 C 514.097 219.993, 514.845 219.558, 514.500 219 C 513.757 217.798, 513.861 217.798, 512 219 M 186.543 219.931 C 186.226 220.443, 186.425 221.144, 186.984 221.490 C 187.543 221.835, 188 221.797, 188 221.404 C 188 221.011, 189.012 221.544, 190.250 222.588 C 192.276 224.297, 192.259 224.213, 190.076 221.743 C 187.347 218.656, 187.335 218.650, 186.543 219.931 M 254 222 C 253.099 222.582, 252.975 222.975, 253.691 222.985 C 254.346 222.993, 255.160 222.550, 255.500 222 C 256.267 220.758, 255.921 220.758, 254 222 M 185.137 224.337 C 185.337 224.463, 186.213 225.106, 187.083 225.767 C 188.329 226.712, 188.667 226.695, 188.667 225.684 C 188.667 224.978, 187.791 224.335, 186.720 224.254 C 185.650 224.173, 184.937 224.210, 185.137 224.337 M 514.813 224.683 C 515.534 224.972, 516.397 224.936, 516.729 224.604 C 517.061 224.272, 516.471 224.036, 515.417 224.079 C 514.252 224.127, 514.015 224.364, 514.813 224.683 M 214 226.059 C 214 226.641, 214.450 226.840, 215 226.500 C 215.550 226.160, 216 225.684, 216 225.441 C 216 225.198, 215.550 225, 215 225 C 214.450 225, 214 225.477, 214 226.059 M 522.500 230 C 522.160 230.550, 522.359 231, 522.941 231 C 523.523 231, 524 230.550, 524 230 C 524 229.450, 523.802 229, 523.559 229 C 523.316 229, 522.840 229.450, 522.500 230 M 243.276 231.980 C 243.156 233.580, 243.383 233.724, 244.459 232.730 C 245.191 232.053, 245.586 231.162, 245.336 230.750 C 244.491 229.354, 243.426 229.990, 243.276 231.980 M 255.872 377.650 C 254.882 378.840, 254.458 382.950, 254.348 392.400 C 254.244 401.426, 254.428 403.945, 254.941 400.500 C 256.075 392.883, 258.280 386, 259.585 386 C 262.048 386, 262.994 389.031, 263.957 400.005 C 264.505 406.246, 265.368 411.768, 265.876 412.276 C 266.384 412.784, 267.958 413.267, 269.374 413.350 C 271.385 413.467, 272.081 414.157, 272.551 416.500 C 272.882 418.150, 274.277 423.275, 275.651 427.889 C 277.752 434.943, 278.940 437.114, 283.127 441.541 C 289.186 447.947, 299.767 455.128, 306.428 457.353 C 309.184 458.274, 314.534 459, 318.566 459 C 329.933 459, 349.451 452.707, 357.773 446.359 C 359.620 444.951, 361.310 443.976, 361.528 444.194 C 361.746 444.412, 360.165 447.240, 358.015 450.477 C 355.865 453.714, 354.334 456.731, 354.612 457.182 C 355.791 459.089, 357.857 457.611, 362.895 451.256 C 368.526 444.153, 373 435.356, 373 431.388 C 373 429.765, 374.174 428.250, 376.750 426.547 C 378.813 425.184, 381.830 422.950, 383.456 421.582 C 388.205 417.588, 384.312 417.188, 376.873 420.906 C 369.214 424.733, 366.475 424.768, 359.221 421.132 C 356.075 419.554, 349.225 416.569, 344 414.499 C 332.726 410.031, 322.023 404.755, 309.133 397.314 C 282.713 382.061, 271.109 378.223, 262 381.725 C 259.288 382.768, 257.981 382.839, 258.554 381.912 C 258.864 381.410, 258.704 381, 258.198 381 C 257.691 381, 257.492 379.875, 257.755 378.500 C 258.312 375.588, 257.786 375.350, 255.872 377.650 M 512.401 378.336 C 511.797 379.027, 511.089 380.232, 510.829 381.014 C 510.463 382.110, 509.919 381.928, 508.455 380.218 C 504.695 375.827, 497.342 378.091, 472.500 391.287 C 452.156 402.094, 433.839 411.226, 426 414.471 C 422.425 415.951, 415.664 418.911, 410.976 421.050 C 402.580 424.879, 402.375 424.918, 397.429 423.613 C 394.668 422.885, 391.377 421.737, 390.118 421.063 C 384.693 418.160, 387.955 422.644, 393.750 426.057 C 396.647 427.763, 397 428.457, 397 432.441 C 397 438.353, 402.388 447.026, 408.191 450.454 L 411 452.113 411 449.057 C 411 447.375, 411.270 446, 411.599 446 C 411.929 446, 414.805 447.609, 417.991 449.575 C 426.215 454.652, 437.621 457.999, 449.052 458.691 C 457.388 459.195, 459.212 459, 463.386 457.153 C 469.119 454.618, 480.851 446.334, 486.796 440.625 C 492.004 435.624, 494.541 428.221, 496.945 411.018 C 498.168 402.270, 498.909 399.500, 500.027 399.500 C 500.837 399.500, 502.077 398.488, 502.782 397.250 C 503.487 396.012, 504.464 395, 504.952 395 C 505.441 395, 506.127 393.697, 506.477 392.104 C 507.511 387.397, 513.474 383.465, 514.706 386.677 C 515.776 389.465, 516.926 384.874, 516.131 380.989 C 515.381 377.321, 514.093 376.405, 512.401 378.336 M 255.074 420.583 C 255.115 424.938, 255.521 430.525, 255.977 433 C 256.509 435.892, 256.613 433.213, 256.267 425.500 C 255.649 411.726, 254.965 408.904, 255.074 420.583 M 353.270 487.750 C 354.014 492.977, 360.513 507.996, 363.361 511.067 C 364.660 512.468, 366.251 514.601, 366.897 515.807 C 367.542 517.013, 368.807 518, 369.706 518 C 370.606 518, 372.118 518.701, 373.065 519.559 C 374.625 520.971, 375.301 520.968, 380.242 519.532 C 383.242 518.660, 386.377 518.207, 387.208 518.526 C 388.537 519.036, 393.494 515.764, 396.500 512.390 C 397.050 511.773, 399.975 509.476, 403 507.285 C 406.025 505.094, 410.188 501.433, 412.250 499.148 C 415.569 495.472, 416 494.397, 416 489.801 L 416 484.608 412.750 487.694 C 410.962 489.391, 408.375 491.119, 407 491.534 C 405.625 491.949, 401.635 494.249, 398.134 496.644 C 392.549 500.465, 391.103 501, 386.352 501 C 380.478 501, 375.349 499.256, 370.554 495.628 C 368.874 494.357, 366.162 492.987, 364.527 492.584 C 362.892 492.180, 359.924 490.084, 357.931 487.925 C 355.938 485.766, 353.954 484, 353.522 484 C 353.090 484, 352.977 485.688, 353.270 487.750 M 333 538 C 333 538.559, 335.536 538.969, 338.750 538.930 C 342.887 538.879, 343.939 538.618, 342.500 538 C 339.696 536.795, 333 536.795, 333 538 M 416.148 538.077 C 407.756 539.166, 406.335 539.846, 412.500 539.825 C 415.250 539.816, 419.750 539.230, 422.500 538.523 C 428.196 537.059, 425.476 536.868, 416.148 538.077 M 240.610 539.822 C 239.854 541.045, 242.681 546.031, 246.380 550 C 248.174 551.925, 250.903 555.075, 252.445 557 C 253.986 558.925, 259.837 565.450, 265.448 571.500 C 271.059 577.550, 280.181 587.399, 285.719 593.387 L 295.789 604.273 296.216 618.887 C 296.737 636.708, 297.447 638.645, 303.802 639.597 C 310.473 640.598, 326.061 639.419, 330.460 637.581 L 334.292 635.980 333.559 624.740 C 333.156 618.558, 332.527 611.482, 332.163 609.016 C 331.549 604.862, 331.243 604.484, 328 603.872 C 326.075 603.509, 319.325 602.245, 313 601.063 C 291.782 597.098, 292.833 597.703, 275.583 579.538 C 256.778 559.736, 246.393 547.690, 243.880 542.765 C 241.877 538.839, 241.453 538.458, 240.610 539.822 M 354.250 539.716 C 355.762 539.945, 358.238 539.945, 359.750 539.716 C 361.262 539.487, 360.025 539.300, 357 539.300 C 353.975 539.300, 352.738 539.487, 354.250 539.716 M 526.291 542.261 C 522.510 550.559, 489.436 586.803, 480.294 592.667 C 477.128 594.697, 472.228 596.633, 467.794 597.605 C 458.305 599.686, 440.755 604.942, 439.592 606.050 C 439.053 606.564, 439.182 607.514, 439.912 608.394 C 440.813 609.480, 440.854 610.405, 440.064 611.881 C 439.473 612.985, 438.699 619.278, 438.345 625.866 L 437.701 637.842 441.601 638.841 C 452.149 641.544, 469.146 640.769, 471.616 637.474 C 472.230 636.655, 473.059 629.383, 473.458 621.314 C 473.858 613.245, 474.567 605.711, 475.035 604.572 C 476.011 602.190, 479.727 598.051, 495.321 581.977 C 507.097 569.838, 510.400 566.202, 518.475 556.486 C 521.211 553.194, 524.177 549.825, 525.068 549 C 527.145 547.074, 529 543.568, 529 541.566 C 529 539.268, 527.477 539.658, 526.291 542.261" stroke="none" fill="black" fill-rule="evenodd"/>
	<path fill-opacity="0.389" d="M 1.079 226.583 C 1.127 227.748, 1.364 227.985, 1.683 227.188 C 1.972 226.466, 1.936 225.603, 1.604 225.271 C 1.272 224.939, 1.036 225.529, 1.079 226.583 M 766.079 233.583 C 766.127 234.748, 766.364 234.985, 766.683 234.188 C 766.972 233.466, 766.936 232.603, 766.604 232.271 C 766.272 231.939, 766.036 232.529, 766.079 233.583 M 0.960 248.500 C 0.684 255.650, 0.337 375.463, 0.190 514.751 L -0.079 768.003 384.211 767.751 L 768.500 767.500 768.564 514 C 768.600 374.575, 768.449 257.462, 768.229 253.750 C 768.009 250.037, 767.466 247, 767.022 247 C 766.577 247, 766.138 274.788, 766.045 308.750 C 765.952 342.712, 765.723 377.025, 765.537 385 C 765.350 392.975, 765.119 408.376, 765.023 419.225 C 764.927 430.073, 764.545 438.907, 764.174 438.856 C 762.124 438.573, 761 439.176, 761 440.559 C 761 441.416, 761.450 441.840, 762 441.500 C 762.558 441.155, 762.993 441.903, 762.985 443.191 C 762.972 445.049, 762.780 445.207, 762 444 C 761.283 442.890, 761.027 443.520, 761.015 446.417 C 761.007 448.571, 760.686 450.019, 760.302 449.635 C 759.918 449.251, 759.120 449.841, 758.529 450.946 C 757.459 452.945, 757.447 452.945, 756.218 450.978 C 755.481 449.798, 755.390 449, 755.992 449 C 757.300 449, 757.307 444.308, 756 443.500 C 755.445 443.157, 754.993 443.909, 754.985 445.191 C 754.966 448.018, 753.507 450.473, 751.783 450.578 C 742.617 451.139, 730.121 452.261, 728.735 452.650 C 727.765 452.922, 727.229 453.562, 727.544 454.072 C 727.860 454.582, 727.754 455.024, 727.309 455.054 C 720.811 455.488, 697.751 458.047, 695.500 458.583 C 693.850 458.976, 692.222 459.724, 691.882 460.244 C 691.542 460.765, 689.517 461.229, 687.382 461.277 C 685.247 461.324, 683.275 461.662, 683 462.027 C 682.129 463.184, 675 463.942, 675 462.878 C 675 462.330, 675.495 462.188, 676.100 462.562 C 676.843 463.021, 676.818 462.529, 676.023 461.043 C 675.227 459.555, 674.306 459.058, 673.173 459.506 C 669.725 460.867, 633.253 462.218, 632.507 461.012 C 632.132 460.404, 630.950 460.642, 629.446 461.627 C 628.099 462.510, 625.907 463.024, 624.575 462.770 C 622.846 462.439, 622.020 462.816, 621.688 464.084 C 621.275 465.665, 619.874 465.862, 609.031 465.862 C 598.559 465.862, 596.921 465.649, 597.419 464.349 C 597.739 463.517, 598 462.622, 598 462.359 C 598 462.097, 598.563 462.167, 599.250 462.515 C 599.938 462.863, 599.600 462.418, 598.500 461.526 C 597.400 460.634, 595.746 460.100, 594.825 460.339 C 593.641 460.646, 593.324 460.320, 593.743 459.226 C 594.200 458.036, 593.837 457.809, 592.167 458.246 C 590.974 458.558, 590.249 458.405, 590.558 457.907 C 590.866 457.408, 592.243 457, 593.618 457 C 594.993 457, 595.877 456.610, 595.583 456.134 C 595.289 455.658, 593.912 455.485, 592.524 455.751 C 591.007 456.041, 590 455.774, 590 455.081 C 590 454.226, 589.466 454.215, 587.929 455.038 C 586.495 455.805, 584.976 455.839, 582.988 455.146 C 580.910 454.421, 579.986 454.470, 579.638 455.323 C 579.209 456.375, 578.602 453.581, 578.870 451.786 C 578.928 451.393, 578.261 451.346, 577.387 451.682 C 575.283 452.489, 574.034 450.331, 574.015 445.857 C 574.006 443.552, 573.449 442.003, 572.500 441.638 C 571.675 441.322, 571 441.499, 571 442.031 C 571 444.287, 569.105 442.754, 568.503 440.011 C 567.750 436.588, 566.011 434.989, 565.978 437.691 C 565.916 442.668, 564.681 457.562, 564.295 457.991 C 563.595 458.766, 564.590 427.781, 565.354 425 C 565.941 422.865, 565.894 422.792, 565.037 424.500 C 564.293 425.983, 564.147 424.950, 564.474 420.500 C 564.894 414.787, 564.865 414.691, 563.859 418.500 C 563.199 420.999, 562.689 442.759, 562.501 476.500 C 562.219 527.117, 562.072 530.980, 560.162 538.169 C 556.618 551.501, 551.361 559.407, 534.162 577.267 C 528.212 583.445, 520.485 591.554, 516.989 595.287 C 513.424 599.093, 510.060 601.853, 509.329 601.573 C 508.611 601.297, 508.123 601.393, 508.244 601.786 C 508.601 602.943, 504.721 606.946, 503.797 606.374 C 503.331 606.087, 503.074 606.266, 503.225 606.773 C 503.553 607.871, 497.291 613.958, 496.573 613.239 C 496.299 612.965, 495.542 613.911, 494.891 615.339 C 494.240 616.768, 493.346 617.714, 492.904 617.441 C 492.462 617.167, 491.614 617.852, 491.020 618.962 C 490.426 620.072, 489.412 620.872, 488.766 620.740 C 488.120 620.608, 487.570 621.036, 487.545 621.691 C 487.474 623.559, 481.197 629.240, 480.013 628.508 C 479.428 628.147, 479.074 628.266, 479.225 628.772 C 479.376 629.278, 477.578 631.786, 475.230 634.346 C 472.129 637.725, 469.802 639.266, 466.730 639.975 C 461.132 641.267, 448.737 641.096, 442.500 639.642 L 437.500 638.476 437.551 632.488 C 437.579 629.195, 437.827 621.674, 438.102 615.776 C 438.667 603.679, 440.001 601.118, 446.897 598.899 C 448.879 598.261, 450.950 597.387, 451.500 596.956 C 452.050 596.525, 457.675 594.510, 464 592.478 C 484.324 585.949, 488.975 583.209, 501.833 570.189 C 522.368 549.395, 526.151 543.828, 530.770 527.610 L 533.365 518.500 533.565 461 C 533.763 404.301, 532.651 394.384, 531.603 443.510 C 531.084 467.840, 529.319 503.462, 528.382 508.500 C 527.359 513.999, 513.424 532, 510.190 532 C 509.535 532, 509 532.363, 509 532.807 C 509 533.251, 507.680 533.523, 506.067 533.412 C 504.325 533.291, 502.916 533.775, 502.598 534.604 C 501.973 536.235, 500 536.490, 500 534.941 C 500 534.359, 500.450 534.160, 501 534.500 C 501.550 534.840, 502 534.641, 502 534.059 C 502 533.477, 501.622 533, 501.161 533 C 500.149 533, 498 528.509, 498 526.394 C 498 525.562, 498.355 525.101, 498.788 525.369 C 499.221 525.637, 499.642 524.651, 499.722 523.178 C 499.853 520.783, 499.769 520.712, 498.921 522.500 C 498.176 524.070, 498.103 523.855, 498.579 521.500 C 498.913 519.850, 499.312 516.446, 499.467 513.936 C 499.621 511.425, 500.048 508.424, 500.416 507.266 C 501.690 503.252, 501.873 501.039, 500.977 500.486 C 500.467 500.171, 500.441 498.968, 500.915 497.715 C 502.817 492.694, 501.846 472.359, 499.766 473.644 C 499.094 474.060, 498.880 473.407, 499.179 471.846 C 499.436 470.497, 499.053 468.839, 498.327 468.160 C 496.658 466.601, 495.218 467.329, 484.201 475.300 C 474.566 482.271, 468.587 488.655, 465.751 495 C 464.645 497.475, 463.387 500.220, 462.955 501.100 C 462.422 502.186, 462.866 503.297, 464.335 504.555 C 465.526 505.574, 466.613 506.317, 466.750 506.204 C 467.611 505.501, 468.959 506.205, 468.750 507.250 C 468.612 507.938, 469.063 508.388, 469.750 508.250 C 470.997 508.001, 471.413 509.715, 471.025 513.500 C 470.726 516.420, 466.997 527.340, 465.921 528.450 C 465.415 528.972, 465 530.045, 465 530.833 C 465 531.622, 463.483 535.244, 461.628 538.883 C 459.773 542.523, 458.227 545.725, 458.193 546 C 458.033 547.256, 456.581 550.550, 455.988 551 C 454.724 551.960, 453.266 559.812, 454.102 561.153 C 454.564 561.894, 454.761 565.772, 454.538 569.771 C 454.188 576.071, 453.720 577.566, 451.030 580.962 C 443.308 590.712, 425.126 603.926, 415.167 607.025 C 405.834 609.930, 392.002 611.314, 378.500 610.693 C 361.786 609.926, 353.837 607.912, 343.870 601.922 C 333.324 595.583, 320.081 584.125, 319.401 580.750 C 319.318 580.337, 319.143 579.888, 319.012 579.750 C 318.882 579.612, 318.666 577.700, 318.533 575.500 C 318.309 571.790, 317.847 568.806, 316.397 561.723 C 315.479 557.234, 310.914 549.884, 306.296 545.459 C 303.933 543.195, 302 541.022, 302 540.631 C 302 539.854, 298.524 534.681, 295.864 531.500 C 294.001 529.273, 287.676 511.991, 288.442 511.225 C 288.710 510.956, 288.403 509.784, 287.760 508.619 C 287.117 507.453, 286.701 505.770, 286.836 504.877 C 286.980 503.927, 286.133 502.967, 284.791 502.560 C 283.414 502.142, 282.998 501.660, 283.750 501.349 C 284.438 501.066, 285 500.394, 285 499.858 C 285 499.321, 284.550 499.160, 284 499.500 C 283.450 499.840, 283 499.416, 283 498.559 C 283 497.702, 282.550 497, 282 497 C 281.450 497, 281 496.325, 281 495.500 C 281 494.675, 280.550 494, 280 494 C 279.450 494, 279 493.325, 279 492.500 C 279 491.452, 277.944 491, 275.500 491 C 273.575 491, 272 491.164, 272 491.364 C 272 495.240, 277.854 516.751, 281.018 524.500 C 283.441 530.434, 283.741 532.634, 282.380 534.495 C 281.621 535.533, 280.986 535.959, 280.970 535.441 C 280.953 534.924, 280.479 535.291, 279.915 536.258 C 279.352 537.225, 279.164 538.457, 279.498 538.996 C 279.846 539.560, 279.426 539.717, 278.511 539.366 C 277.499 538.978, 277.024 539.234, 277.209 540.068 C 277.369 540.790, 276.659 541.564, 275.632 541.787 C 274.522 542.028, 274.023 541.772, 274.403 541.157 C 274.755 540.587, 274.246 540.128, 273.272 540.136 C 267.034 540.187, 263.458 537.982, 253.881 528.174 C 248.540 522.705, 243.478 516.892, 242.632 515.256 C 241.359 512.793, 240.964 505.066, 240.338 470.391 C 239.782 439.597, 239.348 430.157, 238.703 434.755 C 238.219 438.195, 237.461 440.785, 237.018 440.511 C 235.749 439.727, 234.759 470.291, 235.253 495 C 236.029 533.817, 239.116 540.549, 271.239 573.472 C 278.483 580.896, 284.493 586.225, 285.927 586.495 C 287.261 586.747, 288.611 587.347, 288.927 587.828 C 289.753 589.089, 300.493 592.961, 307.500 594.523 C 317.965 596.857, 325.387 599.294, 329.153 601.633 L 332.806 603.903 333.459 613.201 C 333.819 618.316, 334.200 625.633, 334.306 629.462 C 334.496 636.275, 334.436 636.456, 331.500 637.924 C 329.402 638.973, 324.256 639.543, 314.389 639.820 C 301.292 640.187, 300.143 640.072, 298.389 638.215 C 297.350 637.115, 294.475 634.556, 292 632.528 C 282.908 625.079, 251.286 594.055, 237.138 578.704 C 219.912 560.013, 215.969 554.686, 212.934 546 C 210.694 539.592, 210.654 538.631, 210.078 477.831 C 209.757 443.912, 209.158 415.825, 208.747 415.414 C 208.082 414.749, 207.415 428.993, 207.994 431.500 C 208.743 434.747, 208.699 466.864, 207.943 468.058 C 207.330 469.026, 207.026 467.631, 207.015 463.809 C 207.007 460.679, 206.567 457.851, 206.038 457.524 C 205.431 457.149, 205.422 456.020, 206.013 454.465 C 207.082 451.655, 206.528 451.329, 204.365 453.492 C 203.544 454.313, 203.153 455.438, 203.495 455.992 C 203.838 456.547, 203.402 457, 202.528 457 C 201.653 457, 200.664 457.713, 200.329 458.584 C 199.881 459.753, 199.525 459.849, 198.968 458.949 C 198.435 458.087, 197.876 458.363, 197.057 459.893 C 196.421 461.083, 195.465 461.787, 194.934 461.459 C 194.402 461.131, 194.207 460.474, 194.500 460 C 194.793 459.526, 194.575 458.856, 194.016 458.510 C 193.457 458.165, 193 458.557, 193 459.382 C 193 460.207, 193.408 461.134, 193.906 461.442 C 194.404 461.750, 194.577 462.902, 194.289 464.001 C 193.997 465.118, 194.259 466, 194.883 466 C 196.647 466, 196.183 469.716, 194.330 470.427 C 193.411 470.779, 192.399 470.715, 192.080 470.284 C 191.761 469.853, 187.225 469.500, 182 469.500 L 172.500 469.500 172.856 473.816 C 173.161 477.520, 172.913 478.210, 171.106 478.683 C 169.948 478.985, 169 479.657, 169 480.176 C 169 480.694, 169.520 480.797, 170.155 480.405 C 170.837 479.983, 171.039 480.128, 170.648 480.760 C 170.285 481.348, 170.328 482.019, 170.744 482.251 C 171.160 482.483, 170.981 482.552, 170.348 482.405 C 169.714 482.258, 168.914 482.420, 168.569 482.765 C 168.224 483.109, 167.239 483.494, 166.379 483.621 C 165.520 483.747, 165.120 483.546, 165.492 483.175 C 165.863 482.804, 166.579 482.444, 167.083 482.375 C 167.588 482.306, 168.295 482.194, 168.655 482.125 C 169.015 482.056, 168.495 481.100, 167.500 480 C 166.292 478.665, 164.494 478.026, 162.095 478.079 C 160.118 478.122, 159.035 478.376, 159.689 478.642 C 161.054 479.198, 157.344 484.010, 155.570 483.985 C 154.842 483.974, 154.831 483.735, 155.535 483.235 C 156.485 482.560, 156.582 481.776, 156.152 478.250 C 156.069 477.563, 155.363 477, 154.583 477 C 153.804 477, 152.994 476.482, 152.783 475.849 C 152.536 475.109, 150.011 474.765, 145.700 474.883 C 141.408 475.001, 139 474.675, 139 473.975 C 139 473.374, 139.563 473.206, 140.250 473.601 C 140.938 473.997, 141.168 473.954, 140.763 473.506 C 140.357 473.058, 136.532 472.699, 132.263 472.707 C 127.993 472.716, 126.405 472.535, 128.734 472.305 C 132.422 471.941, 132.944 471.593, 132.780 469.610 C 132.676 468.358, 132.121 467.285, 131.546 467.225 C 130.971 467.166, 129.600 466.900, 128.500 466.635 C 127.400 466.370, 125.825 466.083, 125 465.998 C 123.957 465.889, 123.881 465.688, 124.750 465.338 C 127.622 464.179, 125.668 462.911, 121.250 463.066 C 118.638 463.158, 115.535 462.990, 114.355 462.694 C 113.176 462.398, 106.115 462.034, 98.665 461.885 C 91.216 461.736, 85.345 461.251, 85.619 460.807 C 86.217 459.841, 84.361 459.778, 80.141 460.622 C 78.204 461.009, 77.287 461.669, 77.708 462.372 C 78.080 462.992, 77.642 462.899, 76.736 462.164 C 74.873 460.654, 72.593 461.514, 73.676 463.319 C 74.171 464.145, 73.923 464.127, 72.850 463.259 C 72.006 462.576, 71.132 462.126, 70.908 462.259 C 70.684 462.391, 70.613 462.312, 70.752 462.081 C 70.891 461.851, 70.259 460.838, 69.347 459.831 C 68.436 458.824, 68.005 458, 68.390 458 C 68.776 458, 67.966 456.875, 66.591 455.500 C 65.216 454.125, 63.283 453.007, 62.295 453.015 C 60.770 453.028, 60.726 453.177, 62 454 C 63 454.646, 63.083 454.974, 62.250 454.985 C 61.563 454.993, 61 455.927, 61 457.059 C 61 458.191, 61.450 458.840, 62 458.500 C 62.916 457.934, 63.445 459.300, 63.094 461.324 C 63.015 461.778, 63.392 461.876, 63.932 461.542 C 64.471 461.209, 64.677 460.321, 64.388 459.569 C 64.100 458.817, 64.414 457.862, 65.086 457.447 C 65.884 456.954, 66.052 457.107, 65.568 457.889 C 65.161 458.548, 65.393 459.768, 66.083 460.600 C 67.106 461.833, 67.076 462.056, 65.919 461.806 C 64.948 461.597, 64.533 462.359, 64.606 464.220 C 64.664 465.716, 64.326 466.702, 63.856 466.411 C 63.385 466.120, 63 465.303, 63 464.596 C 63 462.637, 59.335 459.648, 58.530 460.951 C 58.163 461.546, 57.524 461.824, 57.112 461.569 C 56.699 461.314, 56.446 462.319, 56.549 463.803 C 56.652 465.286, 56.532 465.661, 56.283 464.636 C 55.895 463.037, 55.626 463.168, 54.385 465.558 C 53.244 467.759, 53.203 468.507, 54.191 469.118 C 55.877 470.160, 54.494 471.403, 52.500 470.638 C 51.245 470.157, 51.139 469.609, 51.992 468.015 C 52.836 466.437, 52.764 466, 51.658 466 C 50.881 466, 49.689 465.330, 49.009 464.511 C 48.329 463.692, 47.414 463.244, 46.976 463.515 C 46 464.118, 46.296 466.657, 47.465 467.721 C 47.935 468.149, 48.016 467.969, 47.644 467.319 C 47.272 466.670, 47.350 465.902, 47.817 465.613 C 48.284 465.324, 48.688 465.631, 48.714 466.294 C 48.740 466.957, 49.090 468.293, 49.492 469.261 C 50.043 470.588, 49.844 470.878, 48.689 470.434 C 47.845 470.110, 46.885 469.144, 46.556 468.287 C 46.020 466.889, 45.771 466.897, 44.146 468.368 C 42.652 469.720, 42.333 469.754, 42.333 468.560 C 42.333 467.763, 42.810 467.199, 43.393 467.306 C 43.976 467.412, 44.614 466.438, 44.810 465.139 C 45.039 463.631, 44.776 463.020, 44.084 463.448 C 43.488 463.817, 43 463.691, 43 463.170 C 43 462.308, 35.081 462.388, 20.595 463.395 C 16.574 463.675, 16.046 463.535, 17.667 462.618 C 19.185 461.759, 19.476 460.921, 18.921 459 C 18.524 457.625, 18.155 456.893, 18.100 457.372 C 18.045 457.852, 17.325 457.685, 16.500 457 C 15.554 456.215, 15 456.148, 15 456.819 C 15 457.403, 15.498 458.190, 16.107 458.566 C 16.878 459.043, 16.803 459.510, 15.857 460.110 C 14.749 460.811, 14.776 460.979, 16 461.020 C 16.896 461.050, 16.497 461.626, 15.007 462.451 C 13.142 463.483, 12.327 463.537, 11.772 462.665 C 11.224 461.804, 11.027 461.826, 11.015 462.750 C 10.996 464.321, 8.360 464.391, 7.405 462.845 C 6.962 462.130, 7.130 461.962, 7.845 462.405 C 8.480 462.797, 9 462.589, 9 461.942 C 9 461.259, 8.163 460.986, 7.001 461.289 C 4.638 461.908, 3.336 460.469, 5.506 459.636 C 6.328 459.321, 6.993 458.486, 6.985 457.781 C 6.973 456.780, 6.784 456.792, 6.123 457.835 C 4.838 459.862, 4.012 455.730, 5.257 453.505 C 5.951 452.264, 5.927 451.927, 5.178 452.390 C 4.423 452.856, 4.059 445.808, 3.957 428.777 C 3.877 415.425, 3.657 402.925, 3.469 401 C 3.280 399.075, 2.996 370.275, 2.839 337 C 2.681 303.725, 2.306 267.275, 2.007 256 L 1.462 235.500 0.960 248.500 M 0.079 268.583 C 0.127 269.748, 0.364 269.985, 0.683 269.188 C 0.972 268.466, 0.936 267.603, 0.604 267.271 C 0.272 266.939, 0.036 267.529, 0.079 268.583 M 0.272 275 C 0.272 277.475, 0.467 278.488, 0.706 277.250 C 0.944 276.012, 0.944 273.988, 0.706 272.750 C 0.467 271.512, 0.272 272.525, 0.272 275 M 0.300 286 C 0.300 289.025, 0.487 290.262, 0.716 288.750 C 0.945 287.238, 0.945 284.762, 0.716 283.250 C 0.487 281.738, 0.300 282.975, 0.300 286 M 0.079 293.583 C 0.127 294.748, 0.364 294.985, 0.683 294.188 C 0.972 293.466, 0.936 292.603, 0.604 292.271 C 0.272 291.939, 0.036 292.529, 0.079 293.583 M 0.079 304.583 C 0.127 305.748, 0.364 305.985, 0.683 305.188 C 0.972 304.466, 0.936 303.603, 0.604 303.271 C 0.272 302.939, 0.036 303.529, 0.079 304.583 M 0.079 308.583 C 0.127 309.748, 0.364 309.985, 0.683 309.188 C 0.972 308.466, 0.936 307.603, 0.604 307.271 C 0.272 306.939, 0.036 307.529, 0.079 308.583 M 209.232 312 C 209.232 313.925, 209.438 314.712, 209.689 313.750 C 209.941 312.788, 209.941 311.212, 209.689 310.250 C 209.438 309.288, 209.232 310.075, 209.232 312 M 0.491 540.500 C 0.491 665.900, 0.608 717.051, 0.750 654.170 C 0.892 591.288, 0.892 488.688, 0.750 426.170 C 0.608 363.651, 0.491 415.100, 0.491 540.500 M 209.252 319.500 C 209.263 321.700, 209.468 322.482, 209.707 321.238 C 209.946 319.994, 209.937 318.194, 209.687 317.238 C 209.437 316.282, 209.241 317.300, 209.252 319.500 M 209.079 325.583 C 209.127 326.748, 209.364 326.985, 209.683 326.188 C 209.972 325.466, 209.936 324.603, 209.604 324.271 C 209.272 323.939, 209.036 324.529, 209.079 325.583 M 208.286 374.500 C 208.294 377.250, 208.488 378.256, 208.718 376.736 C 208.947 375.216, 208.941 372.966, 208.704 371.736 C 208.467 370.506, 208.279 371.750, 208.286 374.500 M 532.195 376.500 C 532.215 378.150, 532.439 378.704, 532.693 377.731 C 532.947 376.758, 532.930 375.408, 532.656 374.731 C 532.382 374.054, 532.175 374.850, 532.195 376.500 M 489.560 383.226 C 487.943 383.813, 480.910 387.345, 473.931 391.074 C 447.679 405.103, 431.437 412.892, 404.500 424.370 C 399.858 426.347, 399.500 426.751, 399.500 430 C 399.500 433.785, 403.355 442, 405.132 442 C 405.831 442, 406.009 440.655, 405.628 438.250 C 405.190 435.491, 405.274 435.066, 405.945 436.644 C 407.184 439.557, 414.468 446.441, 420.224 450.139 C 426.857 454.402, 440.584 458.036, 451.018 458.291 C 461.072 458.538, 464.520 457.101, 477.500 447.255 C 488.251 439.100, 490.530 436.469, 492.451 430 C 494.742 422.282, 496.987 406.772, 496.994 398.610 C 496.999 393.338, 497.391 391.434, 498.667 390.502 C 501.237 388.622, 501.283 385.312, 498.764 383.547 C 496.244 381.782, 493.773 381.696, 489.560 383.226 M 274.405 386.535 C 271.739 390.031, 271.715 390.202, 272.281 401.785 C 273.193 420.443, 276.387 432.914, 282.103 440.130 C 285.773 444.764, 296.150 452.257, 303.769 455.773 C 308.687 458.044, 310.776 458.407, 318.500 458.338 C 337.409 458.170, 359.023 447.902, 364.423 436.521 C 365.569 434.106, 366.582 433.227, 367.921 433.485 C 369.369 433.764, 369.947 433.094, 370.415 430.601 C 370.876 428.145, 372.011 426.800, 375.078 425.076 C 380.120 422.243, 379.469 421.195, 374.021 423.375 C 368.217 425.697, 365.804 425.429, 358.225 421.620 C 354.526 419.762, 347.531 416.600, 342.679 414.596 C 331.873 410.131, 321.004 404.701, 306.520 396.530 C 290.936 387.740, 281.313 383, 279.050 383 C 277.978 383, 275.888 384.591, 274.405 386.535 M 564.252 399.500 C 564.263 401.700, 564.468 402.482, 564.707 401.238 C 564.946 399.994, 564.937 398.194, 564.687 397.238 C 564.437 396.282, 564.241 397.300, 564.252 399.500 M 564.300 409 C 564.300 412.025, 564.487 413.262, 564.716 411.750 C 564.945 410.238, 564.945 407.762, 564.716 406.250 C 564.487 404.738, 564.300 405.975, 564.300 409 M 204.240 415.500 C 204.217 418.800, 204.540 423.975, 204.958 427 L 205.718 432.500 205.760 426.500 C 205.783 423.200, 205.460 418.025, 205.042 415 L 204.282 409.500 204.240 415.500 M 199.625 452.798 C 199.354 453.237, 199.545 454.249, 200.051 455.048 C 200.768 456.182, 200.973 456.007, 200.985 454.250 C 201 451.937, 200.492 451.394, 199.625 452.798 M 56 454.912 C 56 455.928, 58.557 455.776, 59.638 454.696 C 60.020 454.313, 59.358 454, 58.167 454 C 56.975 454, 56 454.410, 56 454.912 M 630 454.833 C 630 455.292, 630.655 455.667, 631.456 455.667 C 632.257 455.667, 632.680 455.292, 632.397 454.833 C 632.114 454.375, 631.459 454, 630.941 454 C 630.423 454, 630 454.375, 630 454.833 M 655.039 455.453 C 653.685 457.084, 654.840 458, 657.146 457.125 C 658.492 456.614, 658.553 456.280, 657.483 455.292 C 656.457 454.345, 655.930 454.380, 655.039 455.453 M 8 457 C 8 458.100, 8.173 459, 8.383 459 C 8.594 459, 9.002 458.100, 9.290 457 C 9.577 455.900, 9.405 455, 8.906 455 C 8.408 455, 8 455.900, 8 457 M 70 459.378 C 70 459.585, 70.685 460.324, 71.523 461.019 C 72.796 462.076, 72.943 462.014, 72.416 460.641 C 71.878 459.240, 70 458.257, 70 459.378 M 174.250 460.662 C 172.840 461.231, 172.515 466, 173.887 466 C 174.374 466, 174.971 464.650, 175.213 463 C 175.455 461.350, 175.619 460.036, 175.577 460.079 C 175.535 460.122, 174.938 460.385, 174.250 460.662 M 58.603 461.833 C 58.320 462.292, 58.723 462.667, 59.500 462.667 C 60.277 462.667, 60.680 462.292, 60.397 461.833 C 60.114 461.375, 59.710 461, 59.500 461 C 59.290 461, 58.886 461.375, 58.603 461.833 M 118 462.046 C 116.905 462.787, 117.309 462.880, 119.500 462.390 C 123.177 461.567, 123.975 460.995, 121.417 461.015 C 120.362 461.024, 118.825 461.487, 118 462.046 M 196.046 462.914 C 195.272 464.361, 195.257 465, 195.996 465 C 197.209 465, 198.529 462.195, 197.705 461.371 C 197.406 461.073, 196.660 461.767, 196.046 462.914 M 109.543 463.931 C 109.226 464.443, 109.425 465.144, 109.984 465.490 C 110.543 465.835, 111 465.416, 111 464.559 C 111 462.802, 110.400 462.544, 109.543 463.931 M 127 464.224 C 127 464.651, 129.588 464.948, 132.750 464.884 C 138.853 464.761, 138.255 464.319, 131.250 463.776 C 128.912 463.595, 127 463.797, 127 464.224 M 734.333 464.355 C 734.333 465.135, 735.218 465.614, 736.417 465.483 C 737.563 465.358, 739.063 465.198, 739.750 465.128 C 742.557 464.841, 740.754 463, 737.667 463 C 735.528 463, 734.333 463.486, 734.333 464.355 M 90.498 465.004 C 90.148 465.570, 89.330 465.734, 88.681 465.370 C 87.777 464.862, 87.775 465.005, 88.672 465.975 C 89.316 466.673, 89.577 467.938, 89.252 468.786 C 88.863 469.798, 89.062 470.080, 89.830 469.605 C 90.474 469.207, 91 469.359, 91 469.941 C 91 470.523, 90.438 471.007, 89.750 471.015 C 87.832 471.039, 91.178 472.966, 93.168 472.985 C 94.456 472.997, 94.790 472.181, 94.634 469.411 C 94.429 465.775, 91.771 462.943, 90.498 465.004 M 38 465.393 C 38 466.342, 40.993 466.820, 41.527 465.956 C 41.852 465.430, 41.191 465, 40.059 465 C 38.927 465, 38 465.177, 38 465.393 M 151.750 465.662 C 152.438 465.940, 153.563 465.940, 154.250 465.662 C 154.938 465.385, 154.375 465.158, 153 465.158 C 151.625 465.158, 151.063 465.385, 151.750 465.662 M 189.564 466.707 C 189.022 468.132, 189.136 468.247, 190.124 467.267 C 190.808 466.588, 191.115 465.781, 190.807 465.474 C 190.499 465.166, 189.940 465.721, 189.564 466.707 M 192.636 468.494 C 192.952 469.316, 193.620 469.735, 194.121 469.425 C 195.170 468.777, 194.328 467, 192.972 467 C 192.472 467, 192.321 467.672, 192.636 468.494 M 176.813 468.683 C 177.534 468.972, 178.397 468.936, 178.729 468.604 C 179.061 468.272, 178.471 468.036, 177.417 468.079 C 176.252 468.127, 176.015 468.364, 176.813 468.683 M 56.750 469.662 C 57.438 469.940, 58.563 469.940, 59.250 469.662 C 59.938 469.385, 59.375 469.158, 58 469.158 C 56.625 469.158, 56.063 469.385, 56.750 469.662 M 67.656 471.250 C 67.910 471.663, 72.591 472, 78.059 472 C 83.527 472, 88 471.663, 88 471.250 C 88.001 470.837, 83.319 470.500, 77.597 470.500 C 71.875 470.500, 67.402 470.837, 67.656 471.250 M 97.879 471.279 C 98.362 471.762, 100.049 471.995, 101.628 471.798 C 104.272 471.468, 104.202 471.399, 100.751 470.921 C 98.601 470.623, 97.376 470.776, 97.879 471.279 M 208.079 476.583 C 208.127 477.748, 208.364 477.985, 208.683 477.188 C 208.972 476.466, 208.936 475.603, 208.604 475.271 C 208.272 474.939, 208.036 475.529, 208.079 476.583 M 162.333 480.500 C 162.333 481.325, 162.708 482, 163.167 482 C 163.625 482, 164 481.325, 164 480.500 C 164 479.675, 163.625 479, 163.167 479 C 162.708 479, 162.333 479.675, 162.333 480.500 M 355 487.853 C 355 490.325, 359.031 496.886, 361.727 498.802 C 364.532 500.796, 370.455 502.742, 372.750 502.423 C 373.438 502.328, 374.715 502.194, 375.590 502.125 C 377.790 501.952, 368.416 494.679, 364.028 493.155 C 362.119 492.492, 359.306 490.752, 357.778 489.288 C 356.250 487.824, 355 487.178, 355 487.853 M 412.284 488.950 C 411.133 490.022, 408.197 491.837, 405.760 492.983 C 400.310 495.545, 394.215 501.485, 396.239 502.261 C 398.010 502.941, 411.002 496.890, 413.116 494.402 C 414.971 492.218, 416.446 487, 415.208 487 C 414.751 487, 413.435 487.877, 412.284 488.950 M 505 535 C 505 535.550, 505.477 536, 506.059 536 C 506.641 536, 506.840 535.550, 506.500 535 C 506.160 534.450, 505.684 534, 505.441 534 C 505.198 534, 505 534.450, 505 535 M 278 616.320 C 278 617.907, 282.584 622.083, 283.414 621.252 C 284.401 620.266, 284.064 618.842, 283 619.500 C 282.450 619.840, 282 619.641, 282 619.059 C 282 618.477, 281.325 618, 280.500 618 C 279.675 618, 279 617.523, 279 616.941 C 279 616.359, 279.520 616.203, 280.155 616.595 C 280.870 617.038, 281.038 616.870, 280.595 616.155 C 279.628 614.589, 278 614.693, 278 616.320 M 284 622.378 C 284 622.585, 284.788 623.373, 285.750 624.128 C 287.336 625.371, 287.371 625.336, 286.128 623.750 C 284.821 622.084, 284 621.555, 284 622.378" stroke="none" fill="black" fill-rule="evenodd"/>
</svg>